<?xml version="1.0" standalone="no"?>
<!DOCTYPE svg PUBLIC "-//W3C//DTD SVG 20010904//EN"
 "http://www.w3.org/TR/2001/REC-SVG-20010904/DTD/svg10.dtd">
<svg version="1.0" xmlns="http://www.w3.org/2000/svg"
 width="1006.000000pt" height="1006.000000pt" viewBox="0 0 1006.000000 1006.000000"
 preserveAspectRatio="xMidYMid meet">
<metadata>
Created by potrace 1.14, written by Peter Selinger 2001-2017
</metadata>
<g transform="translate(0.000000,1006.000000) scale(0.100000,-0.100000)"
fill="#000000" stroke="none">
<path d="M331 9679 c-78 -15 -169 -65 -226 -123 -58 -60 -90 -129 -99 -213 -3
-26 -2 -1987 2 -4358 l7 -4310 31 -65 c57 -121 167 -206 295 -230 36 -7 1647
-9 4729 -8 4453 3 4677 4 4720 21 113 45 209 142 247 250 17 50 18 239 18
4377 0 3737 -2 4332 -14 4375 -37 127 -130 223 -266 275 -36 13 -566 15 -4720
16 -2605 1 -4699 -2 -4724 -7z m9471 -158 c52 -33 94 -85 114 -138 11 -32 13
-774 14 -4354 l0 -4316 -31 -62 c-33 -65 -67 -98 -139 -130 l-45 -21 -4670 0
c-3148 0 -4682 3 -4707 10 -40 12 -130 68 -135 87 -2 6 1275 1212 2839 2680
2902 2723 6138 5761 6487 6090 107 101 202 183 211 183 9 0 37 -13 62 -29z
m-6961 -1505 c349 -79 602 -308 711 -642 20 -60 38 -121 42 -135 l5 -25 -222
-54 c-122 -29 -227 -55 -233 -57 -7 -2 -14 13 -18 36 -3 22 -18 78 -32 123
-69 222 -198 352 -389 393 -138 29 -294 9 -408 -52 -151 -82 -276 -267 -336
-498 -69 -261 -68 -646 0 -914 93 -364 318 -571 619 -571 222 0 392 106 492
306 25 50 55 129 68 177 13 48 28 87 34 87 15 0 427 -128 434 -135 16 -16 -76
-251 -136 -349 -200 -324 -510 -471 -955 -453 -320 13 -550 109 -743 309 -94
97 -148 173 -206 287 -163 321 -212 788 -127 1216 107 534 451 890 934 965 86
13 386 4 466 -14z"/>
<path d="M6838 4481 c-54 -8 -94 -39 -103 -82 -5 -20 -13 -29 -26 -29 -19 0
-19 -24 -19 -1280 l0 -1280 279 0 c253 0 280 2 283 17 2 9 19 21 38 28 20 7
45 26 58 45 l22 33 0 493 c0 271 3 499 6 508 5 14 59 16 500 16 487 0 494 0
494 20 0 12 7 20 17 20 9 0 32 10 50 23 47 31 55 72 51 253 l-3 154 -33 32
-32 33 -503 5 c-276 3 -510 9 -520 14 -26 12 -28 33 -25 241 l3 190 558 3
c522 2 557 3 557 20 0 10 15 23 39 33 66 28 76 58 76 239 0 170 -7 196 -58
234 -28 21 -33 21 -845 22 -449 1 -838 -1 -864 -5z"/>
</g>
</svg>
